<svg width="240" height="57" viewBox="0 0 240 57" fill="none" xmlns="http://www.w3.org/2000/svg">
<path d="M27.147 56.7401L2.54941 8.39551H0L24.5976 56.7401H27.147Z" fill="#4D99DB"/>
<path d="M185.94 38.8893V23.1096H185.928C185.81 18.8372 184.331 15.21 181.521 12.3223C178.582 9.30406 174.762 7.77441 170.163 7.77441C165.565 7.77441 161.744 9.30406 158.806 12.3223C155.995 15.2076 154.516 18.8372 154.398 23.1096H154.386V23.6678V38.8893L159.257 38.8966V25.1781L159.26 24.3541L159.257 23.1627C159.383 19.7917 160.7 16.9233 163.182 14.63C165.091 13.0811 167.435 12.2933 170.163 12.2933C172.891 12.2933 175.235 13.0811 177.144 14.63C179.626 16.9233 180.946 19.7941 181.069 23.1627L181.066 24.3541L181.069 25.1757V38.899L185.94 38.8893Z" fill="white"/>
<path d="M54.4245 8.46973L44.9808 27.8912L35.2785 8.95061L25.6125 27.8912L16.1108 8.46973H10.1783L25.6125 38.6954L35.2785 19.6702L44.9808 38.6954L60.0211 9.19468L60.3691 8.46973H54.4245Z" fill="white"/>
<path d="M114.876 8.46973L105.464 27.8187L95.9981 8.46973H90.0632L105.464 38.6954L120.82 8.46973H114.876Z" fill="white"/>
<path d="M91.0611 23.0008C90.9427 18.7598 89.4638 15.1568 86.6534 12.2909C83.715 9.2944 79.8945 7.77441 75.2959 7.77441C70.6973 7.77441 66.8768 9.2944 63.9383 12.2909C61.0047 15.2801 59.5185 19.0716 59.5185 23.5542C59.5185 23.5711 59.5185 23.588 59.5185 23.6049C59.5185 23.6218 59.5185 23.6388 59.5185 23.6557C59.5185 28.1407 61.0047 31.9298 63.9383 34.919C66.8768 37.9155 70.6973 39.4355 75.2959 39.4355C79.6697 39.4355 83.3307 38.0436 86.2064 35.3322V38.8942H86.5181H91.0708V33.4498V22.9984H91.0611V23.0008ZM82.282 32.6161C80.3729 34.1457 78.0265 34.9214 75.2959 34.9214C72.5652 34.9214 70.2188 34.1457 68.3097 32.6161C65.8377 30.3639 64.5207 27.5487 64.3853 24.2453V24.1946L64.3829 23.5953L64.3853 23.0177V22.9694C64.5207 19.6636 65.8377 16.8484 68.3097 14.5962C70.2212 13.0666 72.5652 12.2909 75.2959 12.2909C78.0265 12.2909 80.3729 13.0666 82.282 14.5962C84.7541 16.8484 86.071 19.6636 86.2064 22.967V23.0177L86.2088 23.617L86.2064 24.1946V24.2429C86.071 27.5487 84.7541 30.3639 82.282 32.6161Z" fill="white"/>
<path d="M238.301 34.7228C237.709 34.7904 237.132 34.8339 236.573 34.8339C230.481 34.8339 229.573 29.5998 229.573 26.4801V12.8292H235.955L236.092 8.47227H229.575V3.95099L229.573 3.94858L224.513 0V19.7549V19.7525V26.5985C224.513 34.6309 228.758 39.4277 235.873 39.4277C237.161 39.4277 238.376 39.3697 240 38.8912L238.301 34.7228Z" fill="white"/>
<path d="M144.99 30.3242C144.64 30.8244 144.246 31.298 143.801 31.7451C141.68 33.8813 138.992 34.9204 135.583 34.9204C132.659 34.9204 130.337 34.0383 128.357 32.2985C126.56 30.7156 125.438 28.6399 125.025 26.1267H150.377V23.715C150.377 19.4233 148.982 15.6584 146.23 12.5242C143.456 9.3634 139.795 7.76367 135.351 7.76367C130.769 7.76367 126.961 9.28849 124.034 12.297C121.113 15.2983 119.631 19.1019 119.631 23.6015C119.631 28.1807 121.144 32.0085 124.131 34.9711C127.113 37.9337 130.967 39.4368 135.585 39.4368C140.203 39.4368 144.055 37.9337 147.039 34.9711C147.593 34.4226 148.093 33.8426 148.545 33.2361L144.99 30.3242ZM128.099 14.9794C130.018 13.196 132.451 12.2898 135.329 12.2898C137.888 12.2898 140.131 13.1501 141.996 14.8489C143.707 16.4051 144.763 18.5534 145.133 21.2357H124.882C125.262 18.7153 126.344 16.6105 128.099 14.9794Z" fill="white"/>
<path d="M214.951 30.3242C214.6 30.8244 214.206 31.298 213.762 31.7451C211.64 33.8813 208.953 34.9204 205.543 34.9204C202.619 34.9204 200.297 34.0383 198.318 32.2985C196.52 30.7156 195.399 28.6399 194.985 26.1267H220.337V23.715C220.337 19.4233 218.943 15.6584 216.19 12.5242C213.416 9.3634 209.755 7.76367 205.311 7.76367C200.729 7.76367 196.921 9.28849 193.995 12.297C191.073 15.2983 189.592 19.1019 189.592 23.6015C189.592 28.1807 191.104 32.0085 194.091 34.9711C197.073 37.9337 200.928 39.4368 205.546 39.4368C210.163 39.4368 214.015 37.9337 217 34.9711C217.553 34.4226 218.053 33.8426 218.505 33.2361L214.951 30.3242ZM198.059 14.9794C199.978 13.196 202.411 12.2898 205.289 12.2898C207.848 12.2898 210.091 13.1501 211.956 14.8489C213.667 16.4051 214.723 18.5534 215.093 21.2357H194.843C195.222 18.7153 196.305 16.6105 198.059 14.9794Z" fill="white"/>
</svg>
