<svg width="272" height="65" viewBox="0 0 272 65" fill="none" xmlns="http://www.w3.org/2000/svg">
<path d="M30.7666 64.3059L2.88933 9.51538H0L27.8773 64.3059H30.7666Z" fill="#006DCB"/>
<path d="M210.732 44.0747V26.191H210.719C210.585 21.349 208.909 17.2382 205.723 13.9654C202.393 10.5448 198.063 8.81116 192.851 8.81116C187.64 8.81116 183.31 10.5448 179.98 13.9654C176.794 17.2354 175.118 21.349 174.984 26.191H174.97V26.8236V44.0747L180.492 44.083V28.5353L180.494 27.6014L180.492 26.2512C180.634 22.4307 182.127 19.1799 184.939 16.5809C187.103 14.8254 189.759 13.9325 192.851 13.9325C195.943 13.9325 198.6 14.8254 200.764 16.5809C203.576 19.1799 205.072 22.4335 205.211 26.2512L205.209 27.6014L205.211 28.5326V44.0857L210.732 44.0747Z" fill="#1D252C"/>
<path d="M61.6813 9.59863L50.9785 31.6096L39.9826 10.1436L29.0278 31.6096L18.2592 9.59863H11.5356L29.0278 43.8544L39.9826 22.2925L50.9785 43.8544L68.0242 10.4202L68.4186 9.59863H61.6813Z" fill="#1D252C"/>
<path d="M130.193 9.59863L119.525 31.5274L108.798 9.59863H102.072L119.525 43.8544L136.93 9.59863H130.193Z" fill="#1D252C"/>
<path d="M103.203 26.0677C103.069 21.2613 101.393 17.1779 98.2074 13.9298C94.8771 10.5338 90.5473 8.81116 85.3355 8.81116C80.1237 8.81116 75.7938 10.5338 72.4636 13.9298C69.1388 17.3176 67.4545 21.6146 67.4545 26.6949C67.4545 26.7141 67.4545 26.7332 67.4545 26.7524C67.4545 26.7716 67.4545 26.7908 67.4545 26.8099C67.4545 31.893 69.1388 36.1873 72.4636 39.575C75.7938 42.971 80.1237 44.6937 85.3355 44.6937C90.2926 44.6937 94.4417 43.1162 97.7007 40.0434V44.0802H98.054H103.214V37.9099V26.065H103.203V26.0677ZM93.2531 36.9651C91.0895 38.6987 88.4302 39.5778 85.3355 39.5778C82.2408 39.5778 79.5815 38.6987 77.4179 36.9651C74.6162 34.4126 73.1236 31.222 72.9702 27.4782V27.4207L72.9675 26.7415L72.9702 26.0869V26.0321C73.1236 22.2856 74.6162 19.095 77.4179 16.5425C79.5842 14.8089 82.2408 13.9298 85.3355 13.9298C88.4302 13.9298 91.0895 14.8089 93.2531 16.5425C96.0548 19.095 97.5474 22.2856 97.7007 26.0294V26.0869L97.7035 26.7661L97.7007 27.4207V27.4754C97.5474 31.222 96.0548 34.4126 93.2531 36.9651Z" fill="#1D252C"/>
<path d="M270.075 39.3525C269.404 39.4291 268.749 39.4784 268.117 39.4784C261.212 39.4784 260.183 33.5464 260.183 30.0107V14.5398H267.416L267.572 9.60191H260.185V4.47778L260.183 4.47505L254.448 0V22.3889V22.3862V30.1449C254.448 39.2484 259.26 44.6847 267.322 44.6847C268.782 44.6847 270.16 44.619 272 44.0767L270.075 39.3525Z" fill="#1D252C"/>
<path d="M164.323 34.3674C163.925 34.9343 163.479 35.4711 162.975 35.9777C160.57 38.3988 157.525 39.5764 153.661 39.5764C150.347 39.5764 147.715 38.5768 145.472 36.6049C143.434 34.8111 142.164 32.4585 141.695 29.6102H170.427V26.877C170.427 22.0131 168.847 17.7462 165.727 14.1941C162.583 10.6119 158.434 8.79883 153.398 8.79883C148.205 8.79883 143.889 10.527 140.572 13.9366C137.261 17.3381 135.583 21.6488 135.583 26.7483C135.583 31.9382 137.297 36.2763 140.682 39.6339C144.062 42.9916 148.43 44.695 153.663 44.695C158.897 44.695 163.263 42.9916 166.645 39.6339C167.272 39.0122 167.839 38.3549 168.351 37.6675L164.323 34.3674ZM145.179 16.9766C147.353 14.9554 150.111 13.9284 153.373 13.9284C156.273 13.9284 158.815 14.9034 160.929 16.8287C162.868 18.5924 164.065 21.0271 164.484 24.0671H141.534C141.964 21.2106 143.191 18.8252 145.179 16.9766Z" fill="#1D252C"/>
<path d="M243.611 34.3674C243.213 34.9343 242.767 35.4711 242.263 35.9777C239.859 38.3988 236.813 39.5764 232.949 39.5764C229.635 39.5764 227.003 38.5768 224.76 36.6049C222.723 34.8111 221.452 32.4585 220.983 29.6102H249.715V26.877C249.715 22.0131 248.135 17.7462 245.016 14.1941C241.872 10.6119 237.722 8.79883 232.686 8.79883C227.493 8.79883 223.177 10.527 219.861 13.9366C216.549 17.3381 214.871 21.6488 214.871 26.7483C214.871 31.9382 216.585 36.2763 219.97 39.6339C223.35 42.9916 227.718 44.695 232.952 44.695C238.185 44.695 242.551 42.9916 245.933 39.6339C246.56 39.0122 247.127 38.3549 247.639 37.6675L243.611 34.3674ZM224.467 16.9766C226.642 14.9554 229.399 13.9284 232.661 13.9284C235.562 13.9284 238.103 14.9034 240.217 16.8287C242.156 18.5924 243.353 21.0271 243.772 24.0671H220.822C221.252 21.2106 222.479 18.8252 224.467 16.9766Z" fill="#1D252C"/>
</svg>
